<svg width="100%" viewBox="201.44666975279253 115 147.1066604944149 142.93979873271184">
    <g fil-rule="nonzero">
        <path d="M347.89139,195.72776c-0.99192,1.26244 -2.37733,2.34455 -3.81192,3.09053c-2.72983,1.4264 -5.58264,2.59865 -8.41904,3.80372c-7.18938,3.06594 -14.39516,6.11549 -21.61733,9.11585c-2.62327,1.0903 -5.26293,2.18059 -7.98456,2.96757c-10.13235,2.94296 -17.69062,-0.52466 -22.17477,-10.09957c-2.63966,-5.64001 -3.76275,-11.7145 -4.84483,-17.78899c-0.23774,-1.31983 -0.59024,-2.61507 -0.89355,-3.9267c-0.50007,-0.01639 -1.00011,-0.02459 -1.50018,-0.03278c-2.4839,5.08257 -4.91862,10.18974 -7.46811,15.23951c-1.59855,3.17251 -3.09872,6.45158 -5.11536,9.34537c-5.50886,7.90256 -12.22276,7.41071 -15.98551,-1.44281c-3.70535,-8.73054 -6.58275,-17.78899 -7.18119,-27.38849c-0.03278,-0.47546 0,-0.95093 -0.02459,-1.4264c-0.09837,-1.86909 0.22135,-4.14803 -2.13959,-4.73008c-1.76251,-0.44267 -3.07414,1.02472 -4.10705,2.34455c-1.0165,1.29524 -1.97564,2.67247 -2.75442,4.12344c-4.50872,8.39443 -8.12391,17.12497 -9.77165,26.58512c-0.3607,2.09862 -0.92635,4.16444 -1.56577,6.19747c-1.64774,5.22193 -2.84459,10.50943 -3.00035,16.01829c-0.04919,1.64774 -0.31972,3.30368 -0.67222,4.91862c-0.37709,1.72152 -1.369,3.00855 -3.25449,3.32827c-1.7707,0.29511 -3.52501,-0.72141 -4.46775,-2.77084c-0.59024,-1.28704 -1.12309,-2.63966 -1.37722,-4.02507c-3.17251,-17.23976 -6.82049,-34.39755 -6.25484,-52.11276c0.3197,-10.03398 1.80348,-19.81383 4.77105,-29.37234c0.90994,-2.91838 2.14779,-5.78757 3.56598,-8.50102c2.56587,-4.91042 6.71393,-7.85339 12.18179,-8.8945c4.18084,-0.79518 7.73863,1.30344 8.50922,5.50886c0.45907,2.50849 0.29511,5.18094 0.10656,7.76321c-0.17215,2.35274 -0.87715,4.66449 -1.11489,7.01723c-0.18035,1.77889 0.01641,3.59059 0.04919,6.0581c3.58238,-1.39362 5.73019,-3.59059 8.19769,-5.27931c4.30379,-2.93476 8.55019,-5.97612 13.03433,-8.62397c5.50884,-3.25449 8.69776,-1.94285 10.73898,4.20542c0.81157,2.45111 1.24605,5.04979 1.65594,7.60748c0.67222,4.18082 1.17226,8.39443 1.73792,12.51787c1.7707,0.3033 2.18059,-0.95093 2.91838,-1.82809c2.89379,-3.45123 5.56623,-7.132 8.80432,-10.22252c7.50908,-7.18117 16.37899,-6.56634 22.78959,1.63135c5.61542,7.18119 7.878,15.68221 7.36974,24.68327c-0.22955,4.00866 -0.36889,7.70582 2.90198,10.40287c4.10705,3.38564 8.69776,5.86134 14.33777,4.58251c6.00893,-1.36083 11.99324,-2.82822 17.98576,-4.27101c1.14767,-0.27052 2.28716,-0.94274 3.40205,-0.89355c1.02472,0.041 2.50031,0.55744 2.89379,1.31983c0.42629,0.81976 0.17215,2.45111 -0.45087,3.25449zM243.29799,120.61705c8.85335,-3.7447 18.12661,-5.61705 27.81977,-5.61705c9.69287,0 18.96606,1.87235 27.8196,5.61705c8.55072,3.61663 16.12318,8.72196 22.71737,15.31596c6.59389,6.59404 11.69912,14.1664 15.31569,22.7171c3.74484,8.85353 5.61727,18.12679 5.61727,27.81977c0,0.25153 -0.00126,0.50278 -0.00378,0.75375l-0.03542,0.00913l-1.26621,0.44295l-0.35868,0.10229l-1.31071,0.31613c0.01225,-0.54004 0.01837,-1.08145 0.01837,-1.62425c0,-9.29332 -1.79462,-18.1827 -5.38385,-26.66811c-3.46667,-8.19661 -8.36117,-15.45601 -14.68349,-21.77821c-6.32202,-6.32216 -13.58146,-11.21669 -21.7783,-14.68358c-8.48524,-3.58903 -17.37451,-5.38354 -26.66784,-5.38354c-9.29332,0 -18.18268,1.79451 -26.66807,5.38354c-4.22301,1.78618 -8.19724,3.95131 -11.92267,6.4954l-0.57861,-0.70089l-0.74765,-0.71511l-0.87402,-0.6585c4.03964,-2.81358 8.36339,-5.19486 12.97125,-7.14383zM336.97041,214.28947c-3.61657,8.55072 -8.72181,16.12318 -15.31569,22.71737c-6.59419,6.59389 -14.16665,11.69912 -22.71737,15.31569c-8.85353,3.74484 -18.12673,5.61727 -27.8196,5.61727c-9.69287,0 -18.96612,-1.87243 -27.81977,-5.61727c-8.55066,-3.61657 -16.12302,-8.72181 -22.71705,-15.31569c-0.18546,-0.18547 -0.36975,-0.37171 -0.55286,-0.55873l0.64451,-1.30859l0.30551,-0.81425l0.14586,-0.54749l0.06345,-0.27262l0.01945,-0.09758c0.47938,0.50861 0.96759,1.01142 1.46462,1.50843c6.3222,6.32232 13.5816,11.21682 21.77821,14.68349c8.48539,3.58923 17.37474,5.38385 26.66807,5.38385c9.29332,0 18.18261,-1.79462 26.66784,-5.38385c8.19685,-3.46667 15.45628,-8.36117 21.7783,-14.68349c6.32232,-6.32202 11.21682,-13.58146 14.68349,-21.7783c0.84628,-2.00067 1.59279,-4.02379 2.23953,-6.06939l2.25528,-0.95919l1.27427,-0.54213c-0.81947,2.95139 -1.83482,5.85888 -3.04606,8.72246z">
        </path>
    </g>
</svg>
