<svg viewBox="0 35 550 400" xmlns="http://www.w3.org/2000/svg" >
    <g fill="#101820" stroke-miterlimit="10">
        <g>
            <path d="M122.242 343.7437c1.876 0 3.6582-.938 4.5963-2.6265l14.727-26.171v34.1442c0 2.908 2.439 5.3468 5.3468 5.3468 2.9079 0 5.3468-2.4389 5.3468-5.3468v-53.9367c0-2.9079-2.439-5.3467-5.3468-5.3467-2.345 0-3.846 1.3132-4.784 3.0017l-19.8862 35.645-19.8862-35.645c-.938-1.6885-2.4389-3.0017-4.784-3.0017-2.9078 0-5.3467 2.4388-5.3467 5.3467v53.9367c0 2.908 2.4389 5.3468 5.3468 5.3468 2.9078 0 5.3467-2.4389 5.3467-5.3468v-34.1442l14.727 26.171c.9381 1.6884 2.7204 2.6264 4.5964 2.6264z" />
            <path d="M194.8454 327.3281h-15.3837l7.6919-19.6986zm3.6583 9.9432 5.722 13.6014c.8442 1.9698 2.6265 3.5645 5.0654 3.5645 2.9078 0 5.3467-2.4389 5.3467-5.3468 0-.5628-.0938-1.3132-.3752-1.9698l-22.1375-53.9367c-.5628-1.3133-2.0636-3.377-4.9715-3.377-2.908 0-4.4088 2.0637-4.9716 3.377l-22.1375 53.9367c-.2814.6566-.3752 1.407-.3752 1.9698 0 2.9079 2.4389 5.3468 5.3468 5.3468 2.4388 0 4.2211-1.5947 5.0653-3.5645l5.722-13.6014z" />
            <path d="M232.9294 295.2475c0-3.0017-2.4389-5.4405-5.4406-5.4405s-5.4405 2.4388-5.4405 5.4405v53.7491c0 3.0017 2.4388 5.4406 5.4405 5.4406s5.4406-2.4389 5.4406-5.4406z" />
            <path d="M278.8928 303.9712c1.407 1.3132 2.7203 2.0637 4.0335 2.0637 2.8141 0 5.0654-2.2513 5.0654-4.9716 0-1.1256-.3752-2.1575-.938-3.0017-3.7521-5.3467-11.913-8.8175-21.2933-8.8175-14.9147 0-21.5747 7.8795-21.5747 17.166 0 22.6065 34.2381 16.3217 34.2381 30.017 0 5.8157-4.1273 8.6298-12.6634 8.6298-6.4724 0-11.444-3.1893-15.3837-7.129-.938-.938-2.0636-2.0637-4.1273-2.0637-2.7203 0-4.9716 2.2513-4.9716 5.0654 0 .938.2815 1.876.7505 2.6264 3.6583 5.9096 12.5696 11.444 23.7321 11.444 15.4775 0 23.5445-7.129 23.5445-18.573 0-23.4507-34.238-17.7287-34.238-30.017 0-3.752 2.9079-7.4103 10.6935-7.4103 5.3468 0 10.2245 2.1574 13.1324 4.9715z" />
            <path d="M335.8312 300.1253c2.6265 0 4.784-2.1575 4.784-4.784 0-2.6264-2.1575-4.784-4.784-4.784h-39.5848c-2.6265 0-4.784 2.1576-4.784 4.784 0 2.6265 2.1575 4.784 4.784 4.784h14.3518v48.8713c0 3.0017 2.4389 5.4406 5.4406 5.4406s5.4406-2.4389 5.4406-5.4406v-48.8713z" />
            <path d="m365.1915 329.4856 17.0722 22.9817c.938 1.2195 2.6264 1.9699 4.221 1.9699 3.0018 0 5.4407-2.4389 5.4407-5.4406 0-1.0318-.2815-2.1575-1.1257-3.283L376.917 328.829c9.005-1.1257 14.4456-9.7555 14.4456-18.6668 0-10.5997-7.129-19.6048-19.7924-19.6048h-17.9163c-3.0017 0-5.4406 2.4389-5.4406 5.4406v52.9986c0 3.0017 2.4389 5.4406 5.4406 5.4406 3.0016 0 5.4405-2.4389 5.4405-5.4406v-19.511zm6.2848-29.1727c6.0972 0 8.6299 4.784 8.6299 9.8493 0 4.9716-2.5327 9.7555-8.3485 9.7555h-12.6634v-19.6048z" />
            <path d="M428.0395 355c18.9482 0 29.7355-10.8811 29.7355-32.831 0-22.2313-10.7873-32.9249-29.7355-32.9249s-29.7355 10.6936-29.7355 32.9249c0 21.9499 10.7873 32.831 29.7355 32.831zm0-56.0004c12.382 0 18.4792 7.598 18.4792 23.1694 0 15.4774-6.0972 23.0755-18.4792 23.0755-12.382 0-18.4792-7.598-18.4792-23.0755 0-15.5713 6.0972-23.1694 18.4792-23.1694z" />
        </g>
        <g >
            <path d="M347.8914 195.7278c-.992 1.2624-2.3773 2.3445-3.812 3.0905-2.7298 1.4264-5.5826 2.5986-8.419 3.8037-7.1893 3.066-14.3951 6.1155-21.6173 9.1159-2.6233 1.0903-5.263 2.1805-7.9846 2.9675-10.1323 2.943-17.6906-.5246-22.1747-10.0995-2.6397-5.64-3.7628-11.7145-4.8449-17.789-.2377-1.3199-.5902-2.6151-.8935-3.9267-.5-.0164-1.0001-.0246-1.5002-.0328-2.4839 5.0826-4.9186 10.1897-7.4681 15.2395-1.5985 3.1725-3.0987 6.4516-5.1154 9.3454-5.5088 7.9025-12.2227 7.4107-15.9855-1.4428-3.7053-8.7306-6.5827-17.789-7.1812-27.3885-.0327-.4755 0-.951-.0246-1.4264-.0983-1.8691.2214-4.148-2.1395-4.7301-1.7625-.4427-3.0742 1.0247-4.107 2.3445-1.0166 1.2953-1.9757 2.6725-2.7545 4.1235-4.5087 8.3944-8.124 17.125-9.7717 26.5851-.3607 2.0986-.9263 4.1644-1.5657 6.1975-1.6478 5.2219-2.8446 10.5094-3.0004 16.0183-.0492 1.6477-.3197 3.3036-.6722 4.9186-.377 1.7215-1.369 3.0085-3.2545 3.3282-1.7707.2952-3.525-.7214-4.4677-2.7708-.5903-1.287-1.1231-2.6396-1.3773-4.025-3.1725-17.2398-6.8204-34.3976-6.2548-52.1128.3197-10.034 1.8035-19.8139 4.771-29.3724.91-2.9183 2.1478-5.7875 3.566-8.501 2.5659-4.9104 6.714-7.8534 12.1818-8.8945 4.1809-.7952 7.7387 1.3035 8.5092 5.5089.4591 2.5085.2952 5.181.1066 7.7632-.1721 2.3527-.8771 4.6645-1.1149 7.0172-.1803 1.779.0164 3.5906.0492 6.0581 3.5824-1.3936 5.7302-3.5906 8.1977-5.2793 4.3038-2.9348 8.5502-5.9761 13.0343-8.624 5.5089-3.2545 8.6978-1.9428 10.739 4.2055.8116 2.451 1.246 5.0497 1.656 7.6074.6722 4.1809 1.1722 8.3945 1.7379 12.518 1.7707.3032 2.1806-.951 2.9183-1.8282 2.8938-3.4512 5.5663-7.132 8.8044-10.2225 7.509-7.1812 16.379-6.5663 22.7896 1.6313 5.6154 7.1812 7.878 15.6823 7.3697 24.6833-.2296 4.0087-.3689 7.7058 2.902 10.4029 4.107 3.3856 8.6977 5.8613 14.3377 4.5825 6.009-1.3608 11.9933-2.8282 17.9858-4.271 1.1477-.2705 2.2872-.9428 3.402-.8936 1.0248.041 2.5004.5575 2.8938 1.3199.4263.8197.1722 2.451-.4508 3.2545zM243.298 120.617c8.8533-3.7447 18.1266-5.6171 27.8198-5.6171 9.6928 0 18.966 1.8723 27.8196 5.617 8.5507 3.6167 16.1231 8.722 22.7173 15.316 6.594 6.594 11.6991 14.1664 15.3157 22.7171 3.7449 8.8535 5.6173 18.1268 5.6173 27.8198 0 .2515-.0013.5028-.0038.7537l-.0354.0092-1.2662.443-.3587.1022-1.3107.3161a71.621 71.621 0 0 0 .0184-1.6242c0-9.2933-1.7947-18.1827-5.3839-26.6681-3.4667-8.1966-8.3612-15.456-14.6835-21.7782-6.322-6.3222-13.5814-11.2167-21.7783-14.6836-8.4852-3.589-17.3745-5.3836-26.6678-5.3836-9.2933 0-18.1827 1.7945-26.668 5.3836-4.2231 1.7862-8.1973 3.9513-11.9228 6.4954l-.5786-.701-.7476-.715-.874-.6585c4.0396-2.8136 8.3634-5.1949 12.9712-7.1439zm93.6724 93.6724c-3.6166 8.5507-8.7218 16.1231-15.3157 22.7173-6.5942 6.594-14.1666 11.6992-22.7173 15.3157-8.8536 3.7449-18.1268 5.6173-27.8197 5.6173-9.6928 0-18.966-1.8724-27.8197-5.6173-8.5507-3.6165-16.123-8.7218-22.717-15.3157a74.6 74.6 0 0 1-.553-.5587l.6446-1.3086.3055-.8142.1458-.5475.0635-.2726.0194-.0976a71.037 71.037 0 0 0 1.4647 1.5084c6.3222 6.3223 13.5816 11.2168 21.7782 14.6835 8.4854 3.5892 17.3747 5.3839 26.668 5.3839 9.2934 0 18.1827-1.7947 26.6679-5.3839 8.1968-3.4667 15.4563-8.3612 21.7783-14.6835 6.3223-6.322 11.2168-13.5814 14.6835-21.7783a68.8441 68.8441 0 0 0 2.2395-6.0694l2.2553-.9592 1.2743-.5421c-.8195 2.9514-1.8349 5.8589-3.0461 8.7225z" />
        </g>
    </g>
</svg>
